<?xml version="1.0" encoding="UTF-8" standalone="no"?>
<svg width="300px" height="300px" viewBox="0 0 300 300" version="1.1" xmlns="http://www.w3.org/2000/svg" xmlns:xlink="http://www.w3.org/1999/xlink">
    <!-- Generator: Sketch 39.1 (31720) - http://www.bohemiancoding.com/sketch -->
    <title>Cognitive</title>
    <desc>Created with Sketch.</desc>
    <defs></defs>
    <g id="Page-1" stroke="none" stroke-width="1" fill="none" fill-rule="evenodd">
        <g id="Cognitive" fill="#0082ED">
            <path d="M99.1964286,229.5 C101.374857,229.5 103.142857,227.7304 103.142857,225.55 C103.142857,219.7909 109.22825,213.7 114.982143,213.7 C117.160571,213.7 118.928571,211.9304 118.928571,209.75 C118.928571,207.5696 117.160571,205.8 114.982143,205.8 C104.839821,205.8 95.25,215.3985 95.25,225.55 C95.25,227.7304 97.018,229.5 99.1964286,229.5 M103.142857,91.25 C103.142857,89.0696 101.374857,87.3 99.1964286,87.3 C97.018,87.3 95.25,89.0696 95.25,91.25 C95.25,97.0091 89.1646071,103.1 83.4107143,103.1 C81.2322857,103.1 79.4642857,104.8696 79.4642857,107.05 C79.4642857,109.2304 81.2322857,111 83.4107143,111 C93.5530357,111 103.142857,101.4015 103.142857,91.25 M126.821429,186.05 C126.821429,188.2304 128.589429,190 130.767857,190 C132.946286,190 134.714286,188.2304 134.714286,186.05 C134.714286,175.8985 125.124464,166.3 114.982143,166.3 C112.803714,166.3 111.035714,168.0696 111.035714,170.25 C111.035714,172.4304 112.803714,174.2 114.982143,174.2 C120.736036,174.2 126.821429,180.2909 126.821429,186.05 M130.767857,118.9 C128.589429,118.9 126.821429,120.6696 126.821429,122.85 C126.821429,128.6091 120.736036,134.7 114.982143,134.7 C112.803714,134.7 111.035714,136.4696 111.035714,138.65 C111.035714,140.8304 112.803714,142.6 114.982143,142.6 C125.124464,142.6 134.714286,133.0015 134.714286,122.85 C134.714286,120.6696 132.946286,118.9 130.767857,118.9 M75.5178571,126.8 C73.3394286,126.8 71.5714286,128.5696 71.5714286,130.75 C71.5714286,140.9015 81.16125,150.5 91.3035714,150.5 C93.482,150.5 95.25,148.7304 95.25,146.55 C95.25,144.3696 93.482,142.6 91.3035714,142.6 C85.5496786,142.6 79.4642857,136.5091 79.4642857,130.75 C79.4642857,128.5696 77.6962857,126.8 75.5178571,126.8 M75.5178571,197.9 C77.6962857,197.9 79.4642857,196.1304 79.4642857,193.95 C79.4642857,188.1909 85.5496786,182.1 91.3035714,182.1 C93.482,182.1 95.25,180.3304 95.25,178.15 C95.25,175.9696 93.482,174.2 91.3035714,174.2 C81.16125,174.2 71.5714286,183.7985 71.5714286,193.95 C71.5714286,196.1304 73.3394286,197.9 75.5178571,197.9 M114.982143,67.55 C112.803714,67.55 111.035714,69.3196 111.035714,71.5 C111.035714,73.6804 112.803714,75.45 114.982143,75.45 C120.736036,75.45 126.821429,81.5409 126.821429,87.3 C126.821429,89.4804 128.589429,91.25 130.767857,91.25 C132.946286,91.25 134.714286,89.4804 134.714286,87.3 C134.714286,77.1485 125.124464,67.55 114.982143,67.55 M251.658804,179.11775 C257.538982,173.9472 261,166.4659 261,158.4 C261,149.947 257.246946,142.1813 250.798482,136.9673 C252.317857,133.79545 253.107143,130.3392 253.107143,126.8 C253.107143,118.6472 248.833161,111.13825 242.088714,106.8525 C244.125071,103.30145 245.214286,99.29615 245.214286,95.2 C245.214286,85.009 238.746089,76.14915 229.385161,72.87855 C229.412786,72.4164 229.428571,71.9582 229.428571,71.5 C229.428571,58.42945 218.808732,47.8 205.75,47.8 C202.565232,47.8 199.463339,48.4478 196.562714,49.696 C193.172732,39.4102 183.409268,32 172.205357,32 C155.598786,32 148.215018,46.9942 146.6325,54.9258 C146.604875,55.05615 146.644339,55.18255 146.6325,55.31685 C146.616714,55.45115 146.553571,55.56175 146.553571,55.7 L146.553571,241.113 C145.661679,252.32705 136.146839,261.1 124.848214,261.1 C113.593,261.1 104.105786,252.29545 103.245464,241.0498 C103.091554,238.99185 101.260411,237.4 99.1964286,237.4 C97.9651429,237.4 96.8048929,237.9767 96.0550714,238.9563 C92.9886964,242.98925 88.3792679,245.3 83.4107143,245.3 C74.7048929,245.3 67.625,238.2137 67.625,229.5 C67.625,225.9134 68.8720714,222.4848 71.2399286,219.58155 C72.3054643,218.2741 72.4199107,216.42945 71.5280179,214.9956 C70.636125,213.56175 68.9431071,212.85075 67.2816607,213.2418 C65.9596071,213.5499 64.779625,213.7 63.6785714,213.7 C54.97275,213.7 47.8928571,206.6137 47.8928571,197.9 C47.8928571,191.38645 52.0247679,185.46145 58.1693571,183.15465 C59.6334821,182.6056 60.635875,181.2468 60.7266429,179.6905 C60.8174107,178.13025 59.9847143,176.66085 58.5955714,175.9459 C51.9971429,172.53705 47.8928571,165.8102 47.8928571,158.4 C47.8928571,151.4322 51.4722679,145.1122 57.4668929,141.494 C58.4061429,140.92915 59.0651964,140.0009 59.2940893,138.93045 C59.5190357,137.85605 59.2901429,136.74215 58.6626607,135.8455 C56.7802143,133.15555 55.7857143,130.0311 55.7857143,126.8 C55.7857143,120.23905 59.9610357,114.3022 66.1687679,112.02305 C67.3961071,111.57275 68.3235179,110.5418 68.6392321,109.27385 C68.9549464,108.00195 68.6234464,106.655 67.7512857,105.67935 C65.1269107,102.7445 63.6785714,99.0236 63.6785714,95.2 C63.6785714,87.5449 69.1562143,81.02345 76.7057321,79.68835 C77.7673214,79.49875 78.702625,78.8865 79.3024821,77.98985 C79.8983929,77.0932 80.1036071,75.99115 79.8707679,74.94045 C79.5984643,73.70805 79.4642857,72.5823 79.4642857,71.5 C79.4642857,62.7863 86.5441786,55.7 95.25,55.7 C98.6676071,55.7 101.962875,56.84155 104.784571,59.0022 C105.932982,59.8791 107.464196,60.0608 108.782304,59.4762 C110.100411,58.88765 110.99625,57.6276 111.114643,56.1898 C111.868411,47.0574 119.634982,39.9 128.794643,39.9 C133.190964,39.9 136.829571,41.3141 139.907786,44.2213 C141.49425,45.71835 143.992339,45.6433 145.484089,44.0554 C146.979786,42.4675 146.90875,39.9711 145.322286,38.47405 C140.772054,34.17645 135.211536,32 128.794643,32 C117.590732,32 107.827268,39.4102 104.437286,49.696 C101.536661,48.4478 98.4347679,47.8 95.25,47.8 C82.1912679,47.8 71.5714286,58.42945 71.5714286,71.5 C71.5714286,71.9582 71.5872143,72.4164 71.6148393,72.87855 C62.2539107,76.14915 55.7857143,85.009 55.7857143,95.2 C55.7857143,99.29615 56.8749286,103.30145 58.9112857,106.8525 C52.1668393,111.13825 47.8928571,118.6472 47.8928571,126.8 C47.8928571,130.3392 48.6821429,133.79545 50.2015179,136.9673 C43.7530536,142.1813 40,149.947 40,158.4 C40,166.4659 43.4610179,173.9472 49.3411964,179.11775 C43.5754643,183.5299 40,190.4582 40,197.9 C40,210.11735 49.2859464,220.20565 61.1646964,221.4657 C60.2175536,224.0253 59.7321429,226.7271 59.7321429,229.5 C59.7321429,242.57055 70.3519821,253.2 83.4107143,253.2 C88.3121786,253.2 92.9729107,251.71085 96.8917143,248.9814 C100.913125,260.6497 112.042054,269 124.848214,269 C140.270857,269 153.266446,256.9841 154.434589,241.6502 C154.438536,241.59885 154.414857,241.55145 154.414857,241.5001 C154.418804,241.4448 154.446429,241.4053 154.446429,241.35 L154.446429,56.1424 C155.022607,53.72895 158.917732,39.9 172.205357,39.9 C181.365018,39.9 189.131589,47.0574 189.885357,56.1898 C190.00375,57.6276 190.899589,58.88765 192.217696,59.4762 C193.531857,60.0608 195.067018,59.8791 196.215429,59.0022 C199.037125,56.84155 202.332393,55.7 205.75,55.7 C214.455821,55.7 221.535714,62.7863 221.535714,71.5 C221.535714,72.5823 221.401536,73.70805 221.129232,74.94045 C220.896393,75.99115 221.101607,77.0932 221.697518,77.98985 C222.297375,78.8865 223.232679,79.49875 224.294268,79.68835 C231.843786,81.02345 237.321429,87.5449 237.321429,95.2 C237.321429,99.0236 235.873089,102.7445 233.248714,105.67935 C232.376554,106.655 232.045054,108.00195 232.360768,109.27385 C232.676482,110.5418 233.603893,111.57275 234.831232,112.02305 C241.038964,114.3022 245.214286,120.23905 245.214286,126.8 C245.214286,130.0311 244.219786,133.15555 242.337339,135.8455 C241.709857,136.74215 241.480964,137.85605 241.705911,138.93045 C241.934804,140.0009 242.593857,140.92915 243.533107,141.494 C249.527732,145.1122 253.107143,151.4322 253.107143,158.4 C253.107143,165.8102 249.002857,172.53705 242.404429,175.9459 C241.015286,176.66085 240.182589,178.13025 240.273357,179.6905 C240.364125,181.2468 241.366518,182.6056 242.830643,183.15465 C248.975232,185.46145 253.107143,191.38645 253.107143,197.9 C253.107143,206.6137 246.02725,213.7 237.321429,213.7 C236.220375,213.7 235.040393,213.5499 233.718339,213.2418 C232.056893,212.85075 230.363875,213.56175 229.471982,214.9956 C228.580089,216.42945 228.694536,218.2741 229.760071,219.58155 C232.127929,222.4848 233.375,225.9134 233.375,229.5 C233.375,238.2137 226.295107,245.3 217.589286,245.3 C212.601,245.3 208.003411,242.9616 204.968607,238.88125 C203.954375,237.5185 202.182429,236.9655 200.564393,237.49085 C199.984268,237.6844 199.471232,238.00435 199.052911,238.4112 C198.318875,239.0669 197.833464,239.9991 197.754536,241.0498 C196.894214,252.29545 187.407,261.1 176.151786,261.1 C171.191125,261.1 166.510661,259.46865 162.615536,256.3837 C160.910679,255.02885 158.424429,255.3172 157.070804,257.02755 C155.717179,258.7379 156.009214,261.22245 157.718018,262.5773 C162.943089,266.7169 169.490214,269 176.151786,269 C188.965839,269 200.102661,260.6339 204.116179,248.95375 C208.019196,251.70295 212.675982,253.2 217.589286,253.2 C230.648018,253.2 241.267857,242.57055 241.267857,229.5 C241.267857,226.7271 240.782446,224.0253 239.835304,221.4657 C251.714054,220.20565 261,210.11735 261,197.9 C261,190.4582 257.424536,183.5299 251.658804,179.11775 M182.071429,209.75 C182.071429,211.9304 183.839429,213.7 186.017857,213.7 C191.77175,213.7 197.857143,219.7909 197.857143,225.55 C197.857143,227.7304 199.625143,229.5 201.803571,229.5 C203.982,229.5 205.75,227.7304 205.75,225.55 C205.75,215.3985 196.160179,205.8 186.017857,205.8 C183.839429,205.8 182.071429,207.5696 182.071429,209.75 M217.589286,103.1 C211.835393,103.1 205.75,97.0091 205.75,91.25 C205.75,89.0696 203.982,87.3 201.803571,87.3 C199.625143,87.3 197.857143,89.0696 197.857143,91.25 C197.857143,101.4015 207.446964,111 217.589286,111 C219.767714,111 221.535714,109.2304 221.535714,107.05 C221.535714,104.8696 219.767714,103.1 217.589286,103.1 M170.232143,190 C172.410571,190 174.178571,188.2304 174.178571,186.05 C174.178571,180.2909 180.263964,174.2 186.017857,174.2 C188.196286,174.2 189.964286,172.4304 189.964286,170.25 C189.964286,168.0696 188.196286,166.3 186.017857,166.3 C175.875536,166.3 166.285714,175.8985 166.285714,186.05 C166.285714,188.2304 168.053714,190 170.232143,190 M186.017857,142.6 C188.196286,142.6 189.964286,140.8304 189.964286,138.65 C189.964286,136.4696 188.196286,134.7 186.017857,134.7 C180.263964,134.7 174.178571,128.6091 174.178571,122.85 C174.178571,120.6696 172.410571,118.9 170.232143,118.9 C168.053714,118.9 166.285714,120.6696 166.285714,122.85 C166.285714,133.0015 175.875536,142.6 186.017857,142.6 M225.482143,126.8 C223.303714,126.8 221.535714,128.5696 221.535714,130.75 C221.535714,136.5091 215.450321,142.6 209.696429,142.6 C207.518,142.6 205.75,144.3696 205.75,146.55 C205.75,148.7304 207.518,150.5 209.696429,150.5 C219.83875,150.5 229.428571,140.9015 229.428571,130.75 C229.428571,128.5696 227.660571,126.8 225.482143,126.8 M209.696429,174.2 C207.518,174.2 205.75,175.9696 205.75,178.15 C205.75,180.3304 207.518,182.1 209.696429,182.1 C215.450321,182.1 221.535714,188.1909 221.535714,193.95 C221.535714,196.1304 223.303714,197.9 225.482143,197.9 C227.660571,197.9 229.428571,196.1304 229.428571,193.95 C229.428571,183.7985 219.83875,174.2 209.696429,174.2 M166.285714,87.3 C166.285714,77.1485 175.875536,67.55 186.017857,67.55 C188.196286,67.55 189.964286,69.3196 189.964286,71.5 C189.964286,73.6804 188.196286,75.45 186.017857,75.45 C180.263964,75.45 174.178571,81.5409 174.178571,87.3 C174.178571,89.4804 172.410571,91.25 170.232143,91.25 C168.053714,91.25 166.285714,89.4804 166.285714,87.3" id="brain"></path>
        </g>
    </g>
</svg>