<?xml version="1.0" encoding="UTF-8" standalone="no"?>
<svg width="60px" height="60px" viewBox="0 0 60 60" version="1.1" xmlns="http://www.w3.org/2000/svg" xmlns:xlink="http://www.w3.org/1999/xlink">
    <!-- Generator: Sketch 39 (31667) - http://www.bohemiancoding.com/sketch -->
    <title>compass</title>
    <desc>Created with Sketch.</desc>
    <defs></defs>
    <g id="People" stroke="none" stroke-width="1" fill="none" fill-rule="evenodd">
        <g id="Icon-32" fill="#FFFFFF">
            <path d="M46.4116,18.1797 C46.8676,17.8657 47.4896,17.9817 47.8026,18.4387 C50.5486,22.4407 51.9996,27.1297 51.9996,31.9997 C51.9996,38.4137 49.4976,44.4317 44.9546,48.9447 C44.7676,49.1297 44.5146,49.2347 44.2496,49.2347 C43.9846,49.2347 43.7146,49.1287 43.5276,48.9417 L40.2926,45.7067 C39.9026,45.3167 39.9026,44.6837 40.2926,44.2927 C40.6836,43.9027 41.3166,43.9027 41.7066,44.2927 L44.2286,46.8157 C47.9576,42.7697 49.9996,37.5467 49.9996,31.9997 C49.9996,27.5347 48.6696,23.2377 46.1526,19.5697 C45.8406,19.1147 45.9566,18.4917 46.4116,18.1797 L46.4116,18.1797 Z M42.1126,50.1887 C42.4326,50.6387 42.3266,51.2637 41.8756,51.5827 C37.8056,54.4727 33.0076,55.9997 27.9996,55.9997 C21.5666,55.9997 15.5426,53.4927 11.0386,48.9377 C10.7556,48.6507 10.6716,48.2217 10.8276,47.8487 C10.8986,47.6787 11.0136,47.5347 11.1556,47.4307 L14.2926,44.2927 C14.6836,43.9027 15.3166,43.9027 15.7066,44.2927 C16.0976,44.6837 16.0976,45.3167 15.7066,45.7067 L13.1836,48.2307 C17.2206,51.9587 22.4426,53.9997 27.9996,53.9997 C32.5906,53.9997 36.9876,52.6007 40.7176,49.9517 C41.1686,49.6317 41.7926,49.7397 42.1126,50.1887 L42.1126,50.1887 Z M10.1346,19.1587 C7.4296,22.9157 5.9996,27.3567 5.9996,31.9997 C5.9996,36.6297 7.4216,41.0597 10.1116,44.8097 C10.4326,45.2587 10.3306,45.8827 9.8816,46.2047 C9.7046,46.3317 9.5016,46.3927 9.2996,46.3927 C8.9886,46.3927 8.6816,46.2477 8.4866,45.9757 C5.5516,41.8837 3.9996,37.0507 3.9996,31.9997 C3.9996,26.9347 5.5596,22.0897 8.5116,17.9917 C8.8346,17.5437 9.4596,17.4427 9.9076,17.7637 C10.3556,18.0857 10.4576,18.7107 10.1346,19.1587 L10.1346,19.1587 Z M11.0586,16.4727 C10.8706,16.2847 10.7656,16.0317 10.7656,15.7657 C10.7656,15.5017 10.8696,15.2337 11.0556,15.0457 C15.5596,10.5017 21.5776,7.9997 27.9996,7.9997 C34.3936,7.9997 40.4106,10.5067 44.9426,15.0607 C45.3316,15.4507 45.3316,16.0827 44.9416,16.4727 L41.7066,19.7067 C41.5116,19.9027 41.2556,19.9997 40.9996,19.9997 C40.7446,19.9997 40.4886,19.9027 40.2926,19.7067 C39.9026,19.3167 39.9026,18.6837 40.2926,18.2927 L42.8066,15.7797 C38.7446,12.0447 33.5256,9.9997 27.9996,9.9997 C22.4456,9.9997 17.2226,12.0417 13.1846,15.7707 L15.7066,18.2927 C16.0976,18.6837 16.0976,19.3167 15.7066,19.7067 C15.3166,20.0977 14.6836,20.0977 14.2926,19.7067 L11.0586,16.4727 Z M27.9996,45.4557 L24.0376,31.9857 L27.9996,16.9297 L31.9616,31.9857 L27.9996,45.4557 Z M27.9996,11.9997 C27.5456,11.9997 27.1486,12.3067 27.0326,12.7447 L22.0326,31.7447 C21.9866,31.9217 21.9896,32.1077 22.0406,32.2827 L27.0406,49.2827 C27.1656,49.7077 27.5566,49.9997 27.9996,49.9997 C28.4436,49.9997 28.8336,49.7077 28.9596,49.2827 L33.9596,32.2827 C34.0106,32.1077 34.0136,31.9217 33.9676,31.7447 L28.9676,12.7447 C28.8516,12.3067 28.4536,11.9997 27.9996,11.9997 L27.9996,11.9997 Z M27.9996,29.9997 C29.1026,29.9997 29.9996,30.8977 29.9996,31.9997 C29.9996,33.1027 29.1026,33.9997 27.9996,33.9997 C26.8966,33.9997 25.9996,33.1027 25.9996,31.9997 C25.9996,30.8977 26.8966,29.9997 27.9996,29.9997 L27.9996,29.9997 Z M49.5516,11.4487 C49.2956,11.4487 49.0396,11.3507 48.8446,11.1557 C48.4536,10.7647 48.4536,10.1317 48.8446,9.7417 L53.2926,5.2927 C53.6836,4.9027 54.3166,4.9027 54.7066,5.2927 C55.0976,5.6837 55.0976,6.3167 54.7066,6.7067 L50.2586,11.1557 C50.0636,11.3507 49.8076,11.4487 49.5516,11.4487 L49.5516,11.4487 Z M59.9996,5.9997 C59.9996,9.3087 57.3086,11.9997 53.9996,11.9997 C53.4476,11.9997 52.9996,11.5527 52.9996,10.9997 C52.9996,10.4477 53.4476,9.9997 53.9996,9.9997 C56.2056,9.9997 57.9996,8.2057 57.9996,5.9997 C57.9996,3.7937 56.2056,1.9997 53.9996,1.9997 C51.7946,1.9997 49.9996,3.7937 49.9996,5.9997 C49.9996,6.5527 49.5526,6.9997 48.9996,6.9997 C48.4476,6.9997 47.9996,6.5527 47.9996,5.9997 C47.9996,2.6917 50.6916,-0.0003 53.9996,-0.0003 C57.3086,-0.0003 59.9996,2.6917 59.9996,5.9997 L59.9996,5.9997 Z M27.9996,57.9997 C13.6636,57.9997 1.9996,46.3367 1.9996,31.9997 C1.9996,17.6627 13.6636,5.9997 27.9996,5.9997 C42.3366,5.9997 53.9996,17.6627 53.9996,31.9997 C53.9996,46.3367 42.3366,57.9997 27.9996,57.9997 L27.9996,57.9997 Z M27.9996,3.9997 C12.5606,3.9997 -0.0004,16.5607 -0.0004,31.9997 C-0.0004,47.4397 12.5606,59.9997 27.9996,59.9997 C43.4396,59.9997 55.9996,47.4397 55.9996,31.9997 C55.9996,16.5607 43.4396,3.9997 27.9996,3.9997 L27.9996,3.9997 Z" id="compass"></path>
        </g>
    </g>
</svg>