<?xml version="1.0" encoding="UTF-8" standalone="no"?>
<svg width="300px" height="300px" viewBox="0 0 300 300" version="1.1" xmlns="http://www.w3.org/2000/svg" xmlns:xlink="http://www.w3.org/1999/xlink">
    <!-- Generator: Sketch 39.1 (31720) - http://www.bohemiancoding.com/sketch -->
    <title>motor</title>
    <desc>Created with Sketch.</desc>
    <defs></defs>
    <g id="Page-1" stroke="none" stroke-width="1" fill="none" fill-rule="evenodd">
        <g id="motor" fill="#0082ED">
            <path d="M256.236358,84.35 C256.094691,84.975 244.028025,138.579167 240.032191,163.175 C238.807191,170.7 237.944691,180.079167 236.944691,190.9375 C234.707191,215.3375 231.919691,245.7 223.103025,272.15 C222.536358,273.854167 220.948858,275 219.153025,275 L119.153025,275 C117.007191,275 115.236358,273.375 115.011358,271.291667 C106.657191,230.158333 73.7321912,177.125 53.7238579,157.1125 C49.5280245,152.920833 42.2488579,144.866667 41.9405245,144.525 C41.8321912,144.408333 41.7321912,144.283333 41.6405245,144.154167 C39.2446912,140.8 39.4863579,136.7875 42.2780245,133.4125 C42.3738579,133.295833 42.4738579,133.183333 42.5821912,133.079167 L44.5363579,131.179167 C52.6196912,123.1 74.1696912,123.1 82.2946912,131.225 L98.2446912,147.175 C99.8738579,148.8 99.8738579,151.4375 98.2446912,153.066667 C96.6196912,154.691667 93.9821912,154.691667 92.3530245,153.066667 L76.4030245,137.116667 C71.5363579,132.258333 55.2530245,132.254167 50.3863579,137.116667 L48.5821912,138.870833 C48.4655245,139.025 48.4030245,139.1375 48.3655245,139.2125 C49.6905245,140.666667 55.9905245,147.595833 59.6155245,151.220833 C79.8905245,171.495833 112.944691,224.454167 122.536358,266.666667 L216.119691,266.666667 C223.911358,241.779167 226.528025,213.258333 228.648858,190.175 C229.657191,179.1625 230.532191,169.65 231.803025,161.833333 C235.848858,136.991667 247.965525,83.1458333 248.086358,82.6041667 C249.411358,76.0625 247.078025,75.3791667 245.198858,74.8333333 C242.557191,74.0708333 240.282191,75.4458333 235.203025,85.2458333 L210.486358,143.3 C209.669691,145.229167 207.544691,146.245833 205.515525,145.675 C203.498858,145.104167 202.219691,143.125 202.532191,141.05 L215.032191,57.7166667 C215.723858,53.5208333 215.086358,49.9416667 213.303025,47.8375 C212.190525,46.525 210.657191,45.8333333 208.865525,45.8333333 C204.053025,45.8333333 200.361358,51.7833333 198.840525,57.6833333 L181.557191,138.370833 C181.111358,140.454167 179.190525,141.833333 177.044691,141.645833 C174.928025,141.416667 173.319691,139.633333 173.319691,137.5 L173.319691,45.8333333 C173.432191,41.6125 172.323858,38.1416667 170.186358,35.9458333 C168.498858,34.2125 166.223858,33.3333333 163.423858,33.3333333 C158.736358,33.3333333 155.257191,35.5375 152.461358,46.4416667 L148.315525,141.845833 C148.219691,144 146.498858,145.729167 144.344691,145.829167 C142.253025,145.941667 140.315525,144.366667 140.023858,142.229167 L127.523858,50.5625 C126.090525,37.5 119.498858,37.5 117.328025,37.5 C109.953025,37.5 106.653025,43.7791667 106.653025,50 L114.973858,162.191667 C115.144691,164.4875 113.423858,166.483333 111.128025,166.654167 C108.757191,166.833333 106.836358,165.1 106.665525,162.808333 L98.3321912,50.3083333 C98.3196912,37.9291667 106.315525,29.1666667 117.328025,29.1666667 C123.390525,29.1666667 133.848858,31.8125 135.794691,49.5458333 L142.007191,95.0958333 L144.157191,45.65 C144.169691,45.3708333 144.207191,45.0958333 144.278025,44.8208333 C145.761358,38.8916667 149.232191,25 163.423858,25 C168.486358,25 172.890525,26.775 176.157191,30.1375 C179.878025,33.9583333 181.828025,39.575 181.653025,45.95 L181.653025,98.1541667 L190.728025,55.7666667 C193.607191,44.6041667 200.711358,37.5 208.865525,37.5 C213.119691,37.5 216.948858,39.2541667 219.657191,42.4458333 C223.078025,46.475 224.357191,52.3583333 223.261358,59.0125 L215.615525,110 L227.673858,81.7 C231.448858,74.3833333 236.936358,63.7416667 247.532191,66.8333333 C252.811358,68.375 258.607191,72.6583333 256.236358,84.35" id="gesture-five"></path>
        </g>
    </g>
</svg>