<?xml version="1.0" encoding="UTF-8" standalone="no"?>
<svg width="60px" height="60px" viewBox="0 0 60 60" version="1.1" xmlns="http://www.w3.org/2000/svg" xmlns:xlink="http://www.w3.org/1999/xlink">
    <!-- Generator: Sketch 39 (31667) - http://www.bohemiancoding.com/sketch -->
    <title>strategy</title>
    <desc>Created with Sketch.</desc>
    <defs></defs>
    <g id="People" stroke="none" stroke-width="1" fill="none" fill-rule="evenodd">
        <g id="Icon-36" fill="#FFFFFF">
            <path d="M31.293,42.707 C31.488,42.902 31.744,43 32,43 C32.256,43 32.512,42.902 32.707,42.707 L35,40.414 L37.293,42.707 C37.488,42.902 37.744,43 38,43 C38.256,43 38.512,42.902 38.707,42.707 C39.098,42.316 39.098,41.684 38.707,41.293 L36.414,39 L38.707,36.707 C39.098,36.316 39.098,35.684 38.707,35.293 C38.316,34.902 37.684,34.902 37.293,35.293 L35,37.586 L32.707,35.293 C32.316,34.902 31.684,34.902 31.293,35.293 C30.902,35.684 30.902,36.316 31.293,36.707 L33.586,39 L31.293,41.293 C30.902,41.684 30.902,42.316 31.293,42.707 M53.707,42.293 C53.316,41.902 52.684,41.902 52.293,42.293 L50,44.586 L47.707,42.293 C47.316,41.902 46.684,41.902 46.293,42.293 C45.902,42.684 45.902,43.316 46.293,43.707 L48.586,46 L46.293,48.293 C45.902,48.684 45.902,49.316 46.293,49.707 C46.488,49.902 46.744,50 47,50 C47.256,50 47.512,49.902 47.707,49.707 L50,47.414 L52.293,49.707 C52.488,49.902 52.744,50 53,50 C53.256,50 53.512,49.902 53.707,49.707 C54.098,49.316 54.098,48.684 53.707,48.293 L51.414,46 L53.707,43.707 C54.098,43.316 54.098,42.684 53.707,42.293 M10.293,21.707 C10.488,21.902 10.744,22 11,22 C11.256,22 11.512,21.902 11.707,21.707 L14,19.414 L16.293,21.707 C16.488,21.902 16.744,22 17,22 C17.256,22 17.512,21.902 17.707,21.707 C18.098,21.316 18.098,20.684 17.707,20.293 L15.414,18 L17.707,15.707 C18.098,15.316 18.098,14.684 17.707,14.293 C17.316,13.902 16.684,13.902 16.293,14.293 L14,16.586 L11.707,14.293 C11.316,13.902 10.684,13.902 10.293,14.293 C9.902,14.684 9.902,15.316 10.293,15.707 L12.586,18 L10.293,20.293 C9.902,20.684 9.902,21.316 10.293,21.707 M23.707,46.293 C23.316,45.902 22.684,45.902 22.293,46.293 L20,48.586 L17.707,46.293 C17.316,45.902 16.684,45.902 16.293,46.293 C15.902,46.684 15.902,47.316 16.293,47.707 L18.586,50 L16.293,52.293 C15.902,52.684 15.902,53.316 16.293,53.707 C16.488,53.902 16.744,54 17,54 C17.256,54 17.512,53.902 17.707,53.707 L20,51.414 L22.293,53.707 C22.488,53.902 22.744,54 23,54 C23.256,54 23.512,53.902 23.707,53.707 C24.098,53.316 24.098,52.684 23.707,52.293 L21.414,50 L23.707,47.707 C24.098,47.316 24.098,46.684 23.707,46.293 M43,14 C44.654,14 46,12.654 46,11 C46,9.346 44.654,8 43,8 C41.346,8 40,9.346 40,11 C40,12.654 41.346,14 43,14 M43,16 C40.243,16 38,13.757 38,11 C38,8.243 40.243,6 43,6 C45.757,6 48,8.243 48,11 C48,13.757 45.757,16 43,16 M60,4 L60,56 C60,58.206 58.206,60 56,60 L11,60 C10.448,60 10,59.553 10,59 L10,35 C10,30.037 14.038,26 19,26 C23.962,26 28,30.037 28,35 L28,41 C28,44.859 31.14,48 35,48 C38.86,48 42,44.859 42,41 L42,21.414 L37.707,25.707 C37.316,26.098 36.684,26.098 36.293,25.707 C35.902,25.316 35.902,24.684 36.293,24.293 L42.293,18.294 C42.385,18.201 42.495,18.128 42.618,18.077 C42.862,17.976 43.138,17.976 43.382,18.077 C43.505,18.128 43.615,18.201 43.708,18.294 L49.707,24.293 C50.098,24.684 50.098,25.316 49.707,25.707 C49.512,25.902 49.256,26 49,26 C48.744,26 48.488,25.902 48.293,25.707 L44,21.414 L44,41 C44,45.963 39.962,50 35,50 C30.038,50 26,45.963 26,41 L26,35 C26,31.141 22.86,28 19,28 C15.14,28 12,31.141 12,35 L12,58 L56,58 C57.103,58 58,57.103 58,56 L58,4 C58,2.897 57.103,2 56,2 L4,2 C2.897,2 2,2.897 2,4 L2,56 C2,57.103 2.897,58 4,58 L7,58 C7.552,58 8,58.447 8,59 C8,59.553 7.552,60 7,60 L4,60 C1.794,60 0,58.206 0,56 L0,4 C0,1.794 1.794,0 4,0 L56,0 C58.206,0 60,1.794 60,4" id="strategy"></path>
        </g>
    </g>
</svg>